<?xml version="1.0" encoding="UTF-8" standalone="no"?><!DOCTYPE svg PUBLIC "-//W3C//DTD SVG 1.1//EN" "http://www.w3.org/Graphics/SVG/1.1/DTD/svg11.dtd"><svg width="100%" height="100%" viewBox="0 0 699 765" version="1.1" xmlns="http://www.w3.org/2000/svg" xmlns:xlink="http://www.w3.org/1999/xlink" xml:space="preserve" xmlns:serif="http://www.serif.com/" style="fill-rule:evenodd;clip-rule:evenodd;stroke-linejoin:round;stroke-miterlimit:2;"><path d="M171.242,568.453l-2.334,1.261l-55.396,-109.82l259.427,-130.861c17.699,-8.928 39.287,-2.072 48.592,15.432l36.631,68.905l-0.602,0.325c-9.916,-8.008 -24.189,-9.335 -35.665,-2.277l-251.936,154.949l1.283,2.086Z" style="fill:url(#_Linear1);"/><path d="M501.422,765l-180.602,-293.647l99.076,-60.935c6.992,-4.3 15.406,-5.647 23.391,-3.744c7.985,1.903 14.887,6.901 19.187,13.893l211.837,344.433l-172.889,0Z" style="fill:url(#_Linear2);"/><path d="M209.531,541.624l0,220.376l-144,0l-0,-762l144,0l0,260.187c-0,26.678 49.283,31.844 73.924,7.748c57.989,-56.703 237.007,-267.935 237.007,-267.935l177.967,0l-488.899,541.624Zm-207,6.073l-2.531,-2.588l2.531,-2.475l-0,5.063Z" style="fill:url(#_Radial3);"/><defs><linearGradient id="_Linear1" x1="0" y1="0" x2="1" y2="0" gradientUnits="userSpaceOnUse" gradientTransform="matrix(-517.316015,89.5,-239.154886,-1382.331313,450.530762,406)"><stop offset="0" style="stop-color:#c1c1c1;stop-opacity:1"/><stop offset="0.5" style="stop-color:#909090;stop-opacity:1"/><stop offset="1" style="stop-color:#000;stop-opacity:1"/></linearGradient><linearGradient id="_Linear2" x1="0" y1="0" x2="1" y2="0" gradientUnits="userSpaceOnUse" gradientTransform="matrix(-11,-469,469,-11,459.214748,811.5)"><stop offset="0" style="stop-color:#e8e8e8;stop-opacity:1"/><stop offset="0.46" style="stop-color:#bdbdbd;stop-opacity:1"/><stop offset="1" style="stop-color:#535353;stop-opacity:1"/></linearGradient><radialGradient id="_Radial3" cx="0" cy="0" r="1" gradientUnits="userSpaceOnUse" gradientTransform="matrix(350,-658,1004.345498,534.226329,139.214748,503.5)"><stop offset="0" style="stop-color:#d7d7d7;stop-opacity:1"/><stop offset="0.56" style="stop-color:#bfbfbf;stop-opacity:1"/><stop offset="1" style="stop-color:#5f5f5f;stop-opacity:1"/></radialGradient></defs></svg>